# xmcd
#
# Track frame offsets:
#	150
#	12801
#	29468
#	42487
#	57583
#	76497
#	90818
#	106987
#	123240
#	135454
#
# Disc length: 2010 seconds
#
# Revision: 1
# Processed by: cddbd v1.5.1PL0 Copyright (c) Steve Scherf et al.
# Submitted via: audiograbber 1.83.01
#
DISCID=7607d80a
DTITLE=Exile - Best Of The Best
DYEAR=1900
DGENRE=Country
TTITLE0=Give Me One More Chance
TTITLE1=Hang On To Your Heart
TTITLE2=It'll Be Me
TTITLE3=Don't Want To Be A Memory
TTITLE4=I Can't Get Close Enough
TTITLE5=Woke Up In Love
TTITLE6=She's A Miracle
TTITLE7=She's Too Good To Be True
TTITLE8=I Could Get Used To You
TTITLE9=Crazy For Your Love
EXTD=
EXTT0=
EXTT1=
EXTT2=
EXTT3=
EXTT4=
EXTT5=
EXTT6=
EXTT7=
EXTT8=
EXTT9=
PLAYORDER=
